<mxfile host="app.diagrams.net" agent="Mozilla/5.0 (Windows NT 10.0; Win64; x64) AppleWebKit/537.36 (KHTML, like Gecko) Chrome/131.0.0.0 Safari/537.36 OPR/116.0.0.0" version="26.0.11">
  <diagram name="Страница — 1" id="Layrc5BZ7pRTJc2lWRi6">
    <mxGraphModel dx="3097" dy="1219" grid="0" gridSize="10" guides="1" tooltips="1" connect="1" arrows="1" fold="1" page="0" pageScale="1" pageWidth="1654" pageHeight="1169" math="0" shadow="0">
      <root>
        <mxCell id="0" />
        <mxCell id="1" parent="0" />
        <mxCell id="kwv2DIOrIgXD3nRqI5cu-94" value="" style="rounded=0;whiteSpace=wrap;html=1;" vertex="1" parent="1">
          <mxGeometry x="-1297" y="-16" width="924" height="772" as="geometry" />
        </mxCell>
        <mxCell id="kwv2DIOrIgXD3nRqI5cu-2" value="Руководитель" style="shape=umlActor;verticalLabelPosition=bottom;verticalAlign=top;html=1;outlineConnect=0;" vertex="1" parent="1">
          <mxGeometry x="-1330" y="120" width="30" height="60" as="geometry" />
        </mxCell>
        <mxCell id="kwv2DIOrIgXD3nRqI5cu-4" value="Исполнитель" style="shape=umlActor;verticalLabelPosition=bottom;verticalAlign=top;html=1;outlineConnect=0;" vertex="1" parent="1">
          <mxGeometry x="-350" y="95" width="30" height="60" as="geometry" />
        </mxCell>
        <mxCell id="kwv2DIOrIgXD3nRqI5cu-6" value="Создание проектов" style="ellipse;whiteSpace=wrap;html=1;" vertex="1" parent="1">
          <mxGeometry x="-1190" y="60" width="120" height="30" as="geometry" />
        </mxCell>
        <mxCell id="kwv2DIOrIgXD3nRqI5cu-7" value="Удалять проекты" style="ellipse;whiteSpace=wrap;html=1;" vertex="1" parent="1">
          <mxGeometry x="-1190" y="205" width="120" height="30" as="geometry" />
        </mxCell>
        <mxCell id="kwv2DIOrIgXD3nRqI5cu-8" value="Редактирование проектов" style="ellipse;whiteSpace=wrap;html=1;" vertex="1" parent="1">
          <mxGeometry x="-1190" y="140" width="120" height="40" as="geometry" />
        </mxCell>
        <mxCell id="kwv2DIOrIgXD3nRqI5cu-9" value="Создавать задачи" style="ellipse;whiteSpace=wrap;html=1;" vertex="1" parent="1">
          <mxGeometry x="-1190" y="270" width="120" height="30" as="geometry" />
        </mxCell>
        <mxCell id="kwv2DIOrIgXD3nRqI5cu-10" value="Добавить описание" style="ellipse;whiteSpace=wrap;html=1;" vertex="1" parent="1">
          <mxGeometry x="-1020" y="10" width="120" height="30" as="geometry" />
        </mxCell>
        <mxCell id="kwv2DIOrIgXD3nRqI5cu-11" value="Назначить описание" style="ellipse;whiteSpace=wrap;html=1;" vertex="1" parent="1">
          <mxGeometry x="-990" y="60" width="120" height="30" as="geometry" />
        </mxCell>
        <mxCell id="kwv2DIOrIgXD3nRqI5cu-12" value="Extend" style="endArrow=open;endSize=12;dashed=1;html=1;rounded=0;exitX=0;exitY=0.5;exitDx=0;exitDy=0;entryX=1;entryY=0.5;entryDx=0;entryDy=0;" edge="1" parent="1" source="kwv2DIOrIgXD3nRqI5cu-10" target="kwv2DIOrIgXD3nRqI5cu-6">
          <mxGeometry width="160" relative="1" as="geometry">
            <mxPoint x="-1070" y="220" as="sourcePoint" />
            <mxPoint x="-910" y="220" as="targetPoint" />
          </mxGeometry>
        </mxCell>
        <mxCell id="kwv2DIOrIgXD3nRqI5cu-13" style="edgeStyle=orthogonalEdgeStyle;rounded=0;orthogonalLoop=1;jettySize=auto;html=1;exitX=1;exitY=0.3333333333333333;exitDx=0;exitDy=0;exitPerimeter=0;entryX=0;entryY=0.5;entryDx=0;entryDy=0;" edge="1" parent="1" source="kwv2DIOrIgXD3nRqI5cu-2" target="kwv2DIOrIgXD3nRqI5cu-8">
          <mxGeometry relative="1" as="geometry">
            <Array as="points">
              <mxPoint x="-1240" y="140" />
              <mxPoint x="-1240" y="160" />
            </Array>
          </mxGeometry>
        </mxCell>
        <mxCell id="kwv2DIOrIgXD3nRqI5cu-14" style="edgeStyle=orthogonalEdgeStyle;rounded=0;orthogonalLoop=1;jettySize=auto;html=1;exitX=1;exitY=0.3333333333333333;exitDx=0;exitDy=0;exitPerimeter=0;entryX=0;entryY=0.5;entryDx=0;entryDy=0;" edge="1" parent="1" source="kwv2DIOrIgXD3nRqI5cu-2" target="kwv2DIOrIgXD3nRqI5cu-6">
          <mxGeometry relative="1" as="geometry">
            <Array as="points">
              <mxPoint x="-1240" y="140" />
              <mxPoint x="-1240" y="75" />
            </Array>
          </mxGeometry>
        </mxCell>
        <mxCell id="kwv2DIOrIgXD3nRqI5cu-15" style="edgeStyle=orthogonalEdgeStyle;rounded=0;orthogonalLoop=1;jettySize=auto;html=1;exitX=1;exitY=0.3333333333333333;exitDx=0;exitDy=0;exitPerimeter=0;entryX=0;entryY=0.5;entryDx=0;entryDy=0;" edge="1" parent="1" source="kwv2DIOrIgXD3nRqI5cu-2" target="kwv2DIOrIgXD3nRqI5cu-7">
          <mxGeometry relative="1" as="geometry">
            <Array as="points">
              <mxPoint x="-1240" y="140" />
              <mxPoint x="-1240" y="220" />
            </Array>
          </mxGeometry>
        </mxCell>
        <mxCell id="kwv2DIOrIgXD3nRqI5cu-16" style="edgeStyle=orthogonalEdgeStyle;rounded=0;orthogonalLoop=1;jettySize=auto;html=1;exitX=1;exitY=0.3333333333333333;exitDx=0;exitDy=0;exitPerimeter=0;entryX=0;entryY=0.5;entryDx=0;entryDy=0;" edge="1" parent="1" source="kwv2DIOrIgXD3nRqI5cu-2" target="kwv2DIOrIgXD3nRqI5cu-9">
          <mxGeometry relative="1" as="geometry">
            <Array as="points">
              <mxPoint x="-1240" y="140" />
              <mxPoint x="-1240" y="285" />
            </Array>
          </mxGeometry>
        </mxCell>
        <mxCell id="kwv2DIOrIgXD3nRqI5cu-17" value="Extend" style="endArrow=open;endSize=12;dashed=1;html=1;rounded=0;exitX=0;exitY=0.5;exitDx=0;exitDy=0;entryX=1;entryY=0.5;entryDx=0;entryDy=0;" edge="1" parent="1" source="kwv2DIOrIgXD3nRqI5cu-11" target="kwv2DIOrIgXD3nRqI5cu-6">
          <mxGeometry width="160" relative="1" as="geometry">
            <mxPoint x="-1010" y="45" as="sourcePoint" />
            <mxPoint x="-1060" y="85" as="targetPoint" />
          </mxGeometry>
        </mxCell>
        <mxCell id="kwv2DIOrIgXD3nRqI5cu-18" value="Контроль исполнения" style="text;html=1;align=center;verticalAlign=middle;whiteSpace=wrap;rounded=0;" vertex="1" parent="1">
          <mxGeometry x="-1250" width="140" height="30" as="geometry" />
        </mxCell>
        <mxCell id="kwv2DIOrIgXD3nRqI5cu-19" value="Изменить описание" style="ellipse;whiteSpace=wrap;html=1;" vertex="1" parent="1">
          <mxGeometry x="-1000" y="110" width="120" height="30" as="geometry" />
        </mxCell>
        <mxCell id="kwv2DIOrIgXD3nRqI5cu-20" value="Добавить/удалить задачу" style="ellipse;whiteSpace=wrap;html=1;" vertex="1" parent="1">
          <mxGeometry x="-990" y="150" width="120" height="40" as="geometry" />
        </mxCell>
        <mxCell id="kwv2DIOrIgXD3nRqI5cu-21" value="Extend" style="endArrow=open;endSize=12;dashed=1;html=1;rounded=0;exitX=0;exitY=0.5;exitDx=0;exitDy=0;entryX=1;entryY=0.5;entryDx=0;entryDy=0;" edge="1" parent="1" source="kwv2DIOrIgXD3nRqI5cu-20" target="kwv2DIOrIgXD3nRqI5cu-8">
          <mxGeometry width="160" relative="1" as="geometry">
            <mxPoint x="-1010" y="115" as="sourcePoint" />
            <mxPoint x="-1060" y="85" as="targetPoint" />
          </mxGeometry>
        </mxCell>
        <mxCell id="kwv2DIOrIgXD3nRqI5cu-22" value="Extend" style="endArrow=open;endSize=12;dashed=1;html=1;rounded=0;exitX=0;exitY=0.5;exitDx=0;exitDy=0;entryX=1;entryY=0.5;entryDx=0;entryDy=0;" edge="1" parent="1" source="kwv2DIOrIgXD3nRqI5cu-19" target="kwv2DIOrIgXD3nRqI5cu-8">
          <mxGeometry width="160" relative="1" as="geometry">
            <mxPoint x="-1000" y="125" as="sourcePoint" />
            <mxPoint x="-1050" y="95" as="targetPoint" />
          </mxGeometry>
        </mxCell>
        <mxCell id="kwv2DIOrIgXD3nRqI5cu-26" style="edgeStyle=orthogonalEdgeStyle;rounded=0;orthogonalLoop=1;jettySize=auto;html=1;exitX=0.5;exitY=1;exitDx=0;exitDy=0;" edge="1" parent="1" source="kwv2DIOrIgXD3nRqI5cu-9" target="kwv2DIOrIgXD3nRqI5cu-9">
          <mxGeometry relative="1" as="geometry" />
        </mxCell>
        <mxCell id="kwv2DIOrIgXD3nRqI5cu-38" value="Просматривать назначенные задачи" style="ellipse;whiteSpace=wrap;html=1;" vertex="1" parent="1">
          <mxGeometry x="-580" y="40" width="120" height="60" as="geometry" />
        </mxCell>
        <mxCell id="kwv2DIOrIgXD3nRqI5cu-39" value="Искать по ключевым словам" style="ellipse;whiteSpace=wrap;html=1;" vertex="1" parent="1">
          <mxGeometry x="-790" y="65" width="130" height="50" as="geometry" />
        </mxCell>
        <mxCell id="kwv2DIOrIgXD3nRqI5cu-40" value="Фильтровать задачи" style="ellipse;whiteSpace=wrap;html=1;" vertex="1" parent="1">
          <mxGeometry x="-790" y="30" width="120" height="30" as="geometry" />
        </mxCell>
        <mxCell id="kwv2DIOrIgXD3nRqI5cu-41" value="Искать по статусу" style="ellipse;whiteSpace=wrap;html=1;" vertex="1" parent="1">
          <mxGeometry x="-780" y="125" width="120" height="30" as="geometry" />
        </mxCell>
        <mxCell id="kwv2DIOrIgXD3nRqI5cu-42" value="Extend" style="endArrow=open;endSize=12;dashed=1;html=1;rounded=0;exitX=1;exitY=0.5;exitDx=0;exitDy=0;entryX=0;entryY=0.5;entryDx=0;entryDy=0;" edge="1" parent="1" source="kwv2DIOrIgXD3nRqI5cu-40" target="kwv2DIOrIgXD3nRqI5cu-38">
          <mxGeometry width="160" relative="1" as="geometry">
            <mxPoint x="-780" y="20" as="sourcePoint" />
            <mxPoint x="-700" y="-30" as="targetPoint" />
          </mxGeometry>
        </mxCell>
        <mxCell id="kwv2DIOrIgXD3nRqI5cu-43" value="Extend" style="endArrow=open;endSize=12;dashed=1;html=1;rounded=0;exitX=1;exitY=0.5;exitDx=0;exitDy=0;" edge="1" parent="1" source="kwv2DIOrIgXD3nRqI5cu-39">
          <mxGeometry width="160" relative="1" as="geometry">
            <mxPoint x="-610" y="50" as="sourcePoint" />
            <mxPoint x="-580" y="70" as="targetPoint" />
          </mxGeometry>
        </mxCell>
        <mxCell id="kwv2DIOrIgXD3nRqI5cu-44" value="Extend" style="endArrow=open;endSize=12;dashed=1;html=1;rounded=0;exitX=1;exitY=0.5;exitDx=0;exitDy=0;entryX=0;entryY=0.5;entryDx=0;entryDy=0;" edge="1" parent="1" source="kwv2DIOrIgXD3nRqI5cu-41" target="kwv2DIOrIgXD3nRqI5cu-38">
          <mxGeometry width="160" relative="1" as="geometry">
            <mxPoint x="-610" y="95" as="sourcePoint" />
            <mxPoint x="-570" y="80" as="targetPoint" />
          </mxGeometry>
        </mxCell>
        <mxCell id="kwv2DIOrIgXD3nRqI5cu-45" style="edgeStyle=orthogonalEdgeStyle;rounded=0;orthogonalLoop=1;jettySize=auto;html=1;exitX=0;exitY=0.3333333333333333;exitDx=0;exitDy=0;exitPerimeter=0;entryX=1;entryY=0.5;entryDx=0;entryDy=0;" edge="1" parent="1" source="kwv2DIOrIgXD3nRqI5cu-4" target="kwv2DIOrIgXD3nRqI5cu-38">
          <mxGeometry relative="1" as="geometry">
            <Array as="points">
              <mxPoint x="-410" y="115" />
              <mxPoint x="-410" y="70" />
            </Array>
          </mxGeometry>
        </mxCell>
        <mxCell id="kwv2DIOrIgXD3nRqI5cu-47" value="Изменить руководителя" style="ellipse;whiteSpace=wrap;html=1;" vertex="1" parent="1">
          <mxGeometry x="-1010" y="195" width="120" height="40" as="geometry" />
        </mxCell>
        <mxCell id="kwv2DIOrIgXD3nRqI5cu-48" value="Extend" style="endArrow=open;endSize=12;dashed=1;html=1;rounded=0;exitX=0;exitY=0.5;exitDx=0;exitDy=0;entryX=1;entryY=0.5;entryDx=0;entryDy=0;" edge="1" parent="1" source="kwv2DIOrIgXD3nRqI5cu-47" target="kwv2DIOrIgXD3nRqI5cu-8">
          <mxGeometry width="160" relative="1" as="geometry">
            <mxPoint x="-1030" y="160" as="sourcePoint" />
            <mxPoint x="-1090" y="205" as="targetPoint" />
          </mxGeometry>
        </mxCell>
        <mxCell id="kwv2DIOrIgXD3nRqI5cu-49" value="Назначить исполнителя" style="ellipse;whiteSpace=wrap;html=1;" vertex="1" parent="1">
          <mxGeometry x="-1000" y="255" width="120" height="40" as="geometry" />
        </mxCell>
        <mxCell id="kwv2DIOrIgXD3nRqI5cu-50" value="Include" style="endArrow=open;endSize=12;dashed=1;html=1;rounded=0;exitX=1;exitY=0.5;exitDx=0;exitDy=0;entryX=0;entryY=0.5;entryDx=0;entryDy=0;" edge="1" parent="1" source="kwv2DIOrIgXD3nRqI5cu-9" target="kwv2DIOrIgXD3nRqI5cu-49">
          <mxGeometry width="160" relative="1" as="geometry">
            <mxPoint x="-1010" y="235" as="sourcePoint" />
            <mxPoint x="-1050" y="235" as="targetPoint" />
          </mxGeometry>
        </mxCell>
        <mxCell id="kwv2DIOrIgXD3nRqI5cu-51" value="Установить сроки выполнения" style="ellipse;whiteSpace=wrap;html=1;" vertex="1" parent="1">
          <mxGeometry x="-1000" y="300" width="120" height="40" as="geometry" />
        </mxCell>
        <mxCell id="kwv2DIOrIgXD3nRqI5cu-52" value="Include" style="endArrow=open;endSize=12;dashed=1;html=1;rounded=0;exitX=1;exitY=0.5;exitDx=0;exitDy=0;entryX=0;entryY=0.5;entryDx=0;entryDy=0;" edge="1" parent="1" target="kwv2DIOrIgXD3nRqI5cu-51" source="kwv2DIOrIgXD3nRqI5cu-9">
          <mxGeometry width="160" relative="1" as="geometry">
            <mxPoint x="-1070" y="340" as="sourcePoint" />
            <mxPoint x="-1050" y="290" as="targetPoint" />
          </mxGeometry>
        </mxCell>
        <mxCell id="kwv2DIOrIgXD3nRqI5cu-53" value="Добавлять описание" style="ellipse;whiteSpace=wrap;html=1;" vertex="1" parent="1">
          <mxGeometry x="-1010" y="350" width="120" height="40" as="geometry" />
        </mxCell>
        <mxCell id="kwv2DIOrIgXD3nRqI5cu-54" value="Extend" style="endArrow=open;endSize=12;dashed=1;html=1;rounded=0;exitX=0;exitY=0.5;exitDx=0;exitDy=0;entryX=1;entryY=0.5;entryDx=0;entryDy=0;" edge="1" parent="1" source="kwv2DIOrIgXD3nRqI5cu-53" target="kwv2DIOrIgXD3nRqI5cu-9">
          <mxGeometry width="160" relative="1" as="geometry">
            <mxPoint x="-1040" y="320" as="sourcePoint" />
            <mxPoint x="-1080" y="320" as="targetPoint" />
          </mxGeometry>
        </mxCell>
        <mxCell id="kwv2DIOrIgXD3nRqI5cu-55" value="Редактирование задач" style="ellipse;whiteSpace=wrap;html=1;" vertex="1" parent="1">
          <mxGeometry x="-870" y="225" width="120" height="40" as="geometry" />
        </mxCell>
        <mxCell id="kwv2DIOrIgXD3nRqI5cu-59" value="Изменять статус задач" style="ellipse;whiteSpace=wrap;html=1;" vertex="1" parent="1">
          <mxGeometry x="-670" y="210" width="120" height="40" as="geometry" />
        </mxCell>
        <mxCell id="kwv2DIOrIgXD3nRqI5cu-60" value="Extend" style="endArrow=open;endSize=12;dashed=1;html=1;rounded=0;exitX=0;exitY=0.5;exitDx=0;exitDy=0;entryX=1;entryY=0.5;entryDx=0;entryDy=0;" edge="1" parent="1" source="kwv2DIOrIgXD3nRqI5cu-59" target="kwv2DIOrIgXD3nRqI5cu-55">
          <mxGeometry width="160" relative="1" as="geometry">
            <mxPoint x="-710" y="195" as="sourcePoint" />
            <mxPoint x="-740" y="160" as="targetPoint" />
          </mxGeometry>
        </mxCell>
        <mxCell id="kwv2DIOrIgXD3nRqI5cu-62" value="Добавлять комментарии" style="ellipse;whiteSpace=wrap;html=1;" vertex="1" parent="1">
          <mxGeometry x="-670" y="255" width="120" height="40" as="geometry" />
        </mxCell>
        <mxCell id="kwv2DIOrIgXD3nRqI5cu-63" value="Extend" style="endArrow=open;endSize=12;dashed=1;html=1;rounded=0;exitX=0;exitY=0.5;exitDx=0;exitDy=0;entryX=1;entryY=0.5;entryDx=0;entryDy=0;" edge="1" parent="1" source="kwv2DIOrIgXD3nRqI5cu-62" target="kwv2DIOrIgXD3nRqI5cu-55">
          <mxGeometry width="160" relative="1" as="geometry">
            <mxPoint x="-710" y="240" as="sourcePoint" />
            <mxPoint x="-740" y="230" as="targetPoint" />
          </mxGeometry>
        </mxCell>
        <mxCell id="kwv2DIOrIgXD3nRqI5cu-64" value="Получать уведомление о статусе задач" style="ellipse;whiteSpace=wrap;html=1;" vertex="1" parent="1">
          <mxGeometry x="-1170" y="370" width="120" height="55" as="geometry" />
        </mxCell>
        <mxCell id="kwv2DIOrIgXD3nRqI5cu-65" style="edgeStyle=orthogonalEdgeStyle;rounded=0;orthogonalLoop=1;jettySize=auto;html=1;exitX=1;exitY=0.3333333333333333;exitDx=0;exitDy=0;exitPerimeter=0;entryX=0;entryY=0.5;entryDx=0;entryDy=0;" edge="1" parent="1" source="kwv2DIOrIgXD3nRqI5cu-2" target="kwv2DIOrIgXD3nRqI5cu-64">
          <mxGeometry relative="1" as="geometry">
            <Array as="points">
              <mxPoint x="-1240" y="140" />
              <mxPoint x="-1240" y="398" />
            </Array>
          </mxGeometry>
        </mxCell>
        <mxCell id="kwv2DIOrIgXD3nRqI5cu-67" style="edgeStyle=orthogonalEdgeStyle;rounded=0;orthogonalLoop=1;jettySize=auto;html=1;exitX=0.5;exitY=1;exitDx=0;exitDy=0;" edge="1" parent="1" source="kwv2DIOrIgXD3nRqI5cu-41" target="kwv2DIOrIgXD3nRqI5cu-41">
          <mxGeometry relative="1" as="geometry" />
        </mxCell>
        <mxCell id="kwv2DIOrIgXD3nRqI5cu-70" style="edgeStyle=orthogonalEdgeStyle;rounded=0;orthogonalLoop=1;jettySize=auto;html=1;exitX=1;exitY=0.3333333333333333;exitDx=0;exitDy=0;exitPerimeter=0;entryX=0;entryY=0.5;entryDx=0;entryDy=0;" edge="1" parent="1" source="kwv2DIOrIgXD3nRqI5cu-2" target="kwv2DIOrIgXD3nRqI5cu-55">
          <mxGeometry relative="1" as="geometry">
            <Array as="points">
              <mxPoint x="-1240" y="140" />
              <mxPoint x="-1240" y="245" />
            </Array>
          </mxGeometry>
        </mxCell>
        <mxCell id="kwv2DIOrIgXD3nRqI5cu-71" style="edgeStyle=orthogonalEdgeStyle;rounded=0;orthogonalLoop=1;jettySize=auto;html=1;exitX=0;exitY=0.3333333333333333;exitDx=0;exitDy=0;exitPerimeter=0;entryX=0.5;entryY=0;entryDx=0;entryDy=0;" edge="1" parent="1" source="kwv2DIOrIgXD3nRqI5cu-4" target="kwv2DIOrIgXD3nRqI5cu-55">
          <mxGeometry relative="1" as="geometry">
            <Array as="points">
              <mxPoint x="-410" y="115" />
              <mxPoint x="-410" y="170" />
              <mxPoint x="-810" y="170" />
            </Array>
          </mxGeometry>
        </mxCell>
        <mxCell id="kwv2DIOrIgXD3nRqI5cu-72" value="Добавлять отчеты о выполнении" style="ellipse;whiteSpace=wrap;html=1;" vertex="1" parent="1">
          <mxGeometry x="-560" y="302" width="120" height="60" as="geometry" />
        </mxCell>
        <mxCell id="kwv2DIOrIgXD3nRqI5cu-74" style="edgeStyle=orthogonalEdgeStyle;rounded=0;orthogonalLoop=1;jettySize=auto;html=1;exitX=0;exitY=0.3333333333333333;exitDx=0;exitDy=0;exitPerimeter=0;entryX=1;entryY=0.5;entryDx=0;entryDy=0;" edge="1" parent="1" source="kwv2DIOrIgXD3nRqI5cu-4" target="kwv2DIOrIgXD3nRqI5cu-72">
          <mxGeometry relative="1" as="geometry">
            <Array as="points">
              <mxPoint x="-410" y="115" />
              <mxPoint x="-410" y="332" />
            </Array>
          </mxGeometry>
        </mxCell>
        <mxCell id="kwv2DIOrIgXD3nRqI5cu-75" value="Изменять отчет" style="ellipse;whiteSpace=wrap;html=1;" vertex="1" parent="1">
          <mxGeometry x="-750" y="330" width="120" height="30" as="geometry" />
        </mxCell>
        <mxCell id="kwv2DIOrIgXD3nRqI5cu-76" value="Extend" style="endArrow=open;endSize=12;dashed=1;html=1;rounded=0;exitX=1;exitY=0.5;exitDx=0;exitDy=0;entryX=0;entryY=0.5;entryDx=0;entryDy=0;" edge="1" parent="1" source="kwv2DIOrIgXD3nRqI5cu-75" target="kwv2DIOrIgXD3nRqI5cu-72">
          <mxGeometry width="160" relative="1" as="geometry">
            <mxPoint x="-560" y="300" as="sourcePoint" />
            <mxPoint x="-560" y="320" as="targetPoint" />
          </mxGeometry>
        </mxCell>
        <mxCell id="kwv2DIOrIgXD3nRqI5cu-77" value="Получать уведомления о новых задачах" style="ellipse;whiteSpace=wrap;html=1;" vertex="1" parent="1">
          <mxGeometry x="-558" y="373" width="120" height="70" as="geometry" />
        </mxCell>
        <mxCell id="kwv2DIOrIgXD3nRqI5cu-78" style="edgeStyle=orthogonalEdgeStyle;rounded=0;orthogonalLoop=1;jettySize=auto;html=1;exitX=0;exitY=0.3333333333333333;exitDx=0;exitDy=0;exitPerimeter=0;entryX=1;entryY=0.5;entryDx=0;entryDy=0;" edge="1" parent="1" source="kwv2DIOrIgXD3nRqI5cu-4" target="kwv2DIOrIgXD3nRqI5cu-77">
          <mxGeometry relative="1" as="geometry">
            <mxPoint x="-357" y="414" as="targetPoint" />
            <Array as="points">
              <mxPoint x="-410" y="115" />
              <mxPoint x="-410" y="408" />
            </Array>
          </mxGeometry>
        </mxCell>
        <mxCell id="kwv2DIOrIgXD3nRqI5cu-79" value="Просматривать отчеты по проектам" style="ellipse;whiteSpace=wrap;html=1;" vertex="1" parent="1">
          <mxGeometry x="-1170" y="440" width="120" height="55" as="geometry" />
        </mxCell>
        <mxCell id="kwv2DIOrIgXD3nRqI5cu-80" style="edgeStyle=orthogonalEdgeStyle;rounded=0;orthogonalLoop=1;jettySize=auto;html=1;exitX=1;exitY=0.3333333333333333;exitDx=0;exitDy=0;exitPerimeter=0;entryX=0;entryY=0.5;entryDx=0;entryDy=0;" edge="1" parent="1" source="kwv2DIOrIgXD3nRqI5cu-2" target="kwv2DIOrIgXD3nRqI5cu-79">
          <mxGeometry relative="1" as="geometry">
            <Array as="points">
              <mxPoint x="-1240" y="140" />
              <mxPoint x="-1240" y="468" />
            </Array>
          </mxGeometry>
        </mxCell>
        <mxCell id="kwv2DIOrIgXD3nRqI5cu-91" style="edgeStyle=orthogonalEdgeStyle;rounded=0;orthogonalLoop=1;jettySize=auto;html=1;exitX=0;exitY=0.3333333333333333;exitDx=0;exitDy=0;exitPerimeter=0;entryX=1;entryY=0.5;entryDx=0;entryDy=0;" edge="1" parent="1" source="kwv2DIOrIgXD3nRqI5cu-81" target="kwv2DIOrIgXD3nRqI5cu-88">
          <mxGeometry relative="1" as="geometry" />
        </mxCell>
        <mxCell id="kwv2DIOrIgXD3nRqI5cu-92" style="edgeStyle=orthogonalEdgeStyle;rounded=0;orthogonalLoop=1;jettySize=auto;html=1;exitX=0;exitY=0.3333333333333333;exitDx=0;exitDy=0;exitPerimeter=0;entryX=1;entryY=0.5;entryDx=0;entryDy=0;" edge="1" parent="1" source="kwv2DIOrIgXD3nRqI5cu-81" target="kwv2DIOrIgXD3nRqI5cu-89">
          <mxGeometry relative="1" as="geometry" />
        </mxCell>
        <mxCell id="kwv2DIOrIgXD3nRqI5cu-93" style="edgeStyle=orthogonalEdgeStyle;rounded=0;orthogonalLoop=1;jettySize=auto;html=1;exitX=0;exitY=0.3333333333333333;exitDx=0;exitDy=0;exitPerimeter=0;entryX=1;entryY=0.5;entryDx=0;entryDy=0;" edge="1" parent="1" source="kwv2DIOrIgXD3nRqI5cu-81" target="kwv2DIOrIgXD3nRqI5cu-90">
          <mxGeometry relative="1" as="geometry" />
        </mxCell>
        <mxCell id="kwv2DIOrIgXD3nRqI5cu-81" value="Администратор" style="shape=umlActor;verticalLabelPosition=bottom;verticalAlign=top;html=1;outlineConnect=0;" vertex="1" parent="1">
          <mxGeometry x="-330" y="570" width="30" height="60" as="geometry" />
        </mxCell>
        <mxCell id="kwv2DIOrIgXD3nRqI5cu-82" value="Добавлять новых пользователей" style="ellipse;whiteSpace=wrap;html=1;" vertex="1" parent="1">
          <mxGeometry x="-604" y="451" width="120" height="60" as="geometry" />
        </mxCell>
        <mxCell id="kwv2DIOrIgXD3nRqI5cu-83" style="edgeStyle=orthogonalEdgeStyle;rounded=0;orthogonalLoop=1;jettySize=auto;html=1;exitX=0;exitY=0.3333333333333333;exitDx=0;exitDy=0;exitPerimeter=0;entryX=1;entryY=0.5;entryDx=0;entryDy=0;" edge="1" parent="1" source="kwv2DIOrIgXD3nRqI5cu-81" target="kwv2DIOrIgXD3nRqI5cu-82">
          <mxGeometry relative="1" as="geometry" />
        </mxCell>
        <mxCell id="kwv2DIOrIgXD3nRqI5cu-84" value="Назначать роль" style="ellipse;whiteSpace=wrap;html=1;" vertex="1" parent="1">
          <mxGeometry x="-786" y="397" width="120" height="30" as="geometry" />
        </mxCell>
        <mxCell id="kwv2DIOrIgXD3nRqI5cu-85" value="Extend" style="endArrow=open;endSize=12;dashed=1;html=1;rounded=0;exitX=1;exitY=0.5;exitDx=0;exitDy=0;entryX=0;entryY=0.5;entryDx=0;entryDy=0;" edge="1" parent="1" source="kwv2DIOrIgXD3nRqI5cu-84" target="kwv2DIOrIgXD3nRqI5cu-82">
          <mxGeometry width="160" relative="1" as="geometry">
            <mxPoint x="-614" y="478" as="sourcePoint" />
            <mxPoint x="-604" y="573" as="targetPoint" />
          </mxGeometry>
        </mxCell>
        <mxCell id="kwv2DIOrIgXD3nRqI5cu-86" value="Отправлять уведомление о регистрации" style="ellipse;whiteSpace=wrap;html=1;" vertex="1" parent="1">
          <mxGeometry x="-794" y="445" width="120" height="52.5" as="geometry" />
        </mxCell>
        <mxCell id="kwv2DIOrIgXD3nRqI5cu-87" value="Extend" style="endArrow=open;endSize=12;dashed=1;html=1;rounded=0;exitX=1;exitY=0.5;exitDx=0;exitDy=0;entryX=0;entryY=0.5;entryDx=0;entryDy=0;" edge="1" parent="1" source="kwv2DIOrIgXD3nRqI5cu-86" target="kwv2DIOrIgXD3nRqI5cu-82">
          <mxGeometry width="160" relative="1" as="geometry">
            <mxPoint x="-629" y="530.5" as="sourcePoint" />
            <mxPoint x="-589" y="500.5" as="targetPoint" />
          </mxGeometry>
        </mxCell>
        <mxCell id="kwv2DIOrIgXD3nRqI5cu-88" value="Удалять пользователей" style="ellipse;whiteSpace=wrap;html=1;" vertex="1" parent="1">
          <mxGeometry x="-604" y="521" width="120" height="60" as="geometry" />
        </mxCell>
        <mxCell id="kwv2DIOrIgXD3nRqI5cu-89" value="Изменять роли пользователей" style="ellipse;whiteSpace=wrap;html=1;" vertex="1" parent="1">
          <mxGeometry x="-604" y="586" width="120" height="60" as="geometry" />
        </mxCell>
        <mxCell id="kwv2DIOrIgXD3nRqI5cu-90" value="Управлять общими настройками системы" style="ellipse;whiteSpace=wrap;html=1;" vertex="1" parent="1">
          <mxGeometry x="-614" y="654" width="130" height="70" as="geometry" />
        </mxCell>
        <mxCell id="kwv2DIOrIgXD3nRqI5cu-95" value="User" style="shape=table;startSize=30;container=1;collapsible=1;childLayout=tableLayout;fixedRows=1;rowLines=0;fontStyle=1;align=center;resizeLast=1;html=1;" vertex="1" parent="1">
          <mxGeometry x="365" y="-0.40999999999999304" width="180" height="180.4117395737594" as="geometry" />
        </mxCell>
        <mxCell id="kwv2DIOrIgXD3nRqI5cu-96" value="" style="shape=tableRow;horizontal=0;startSize=0;swimlaneHead=0;swimlaneBody=0;fillColor=none;collapsible=0;dropTarget=0;points=[[0,0.5],[1,0.5]];portConstraint=eastwest;top=0;left=0;right=0;bottom=1;" vertex="1" parent="kwv2DIOrIgXD3nRqI5cu-95">
          <mxGeometry y="30" width="180" height="30" as="geometry" />
        </mxCell>
        <mxCell id="kwv2DIOrIgXD3nRqI5cu-97" value="PK" style="shape=partialRectangle;connectable=0;fillColor=none;top=0;left=0;bottom=0;right=0;fontStyle=1;overflow=hidden;whiteSpace=wrap;html=1;" vertex="1" parent="kwv2DIOrIgXD3nRqI5cu-96">
          <mxGeometry width="30" height="30" as="geometry">
            <mxRectangle width="30" height="30" as="alternateBounds" />
          </mxGeometry>
        </mxCell>
        <mxCell id="kwv2DIOrIgXD3nRqI5cu-98" value="id" style="shape=partialRectangle;connectable=0;fillColor=none;top=0;left=0;bottom=0;right=0;align=left;spacingLeft=6;fontStyle=5;overflow=hidden;whiteSpace=wrap;html=1;" vertex="1" parent="kwv2DIOrIgXD3nRqI5cu-96">
          <mxGeometry x="30" width="150" height="30" as="geometry">
            <mxRectangle width="150" height="30" as="alternateBounds" />
          </mxGeometry>
        </mxCell>
        <mxCell id="kwv2DIOrIgXD3nRqI5cu-99" value="" style="shape=tableRow;horizontal=0;startSize=0;swimlaneHead=0;swimlaneBody=0;fillColor=none;collapsible=0;dropTarget=0;points=[[0,0.5],[1,0.5]];portConstraint=eastwest;top=0;left=0;right=0;bottom=0;" vertex="1" parent="kwv2DIOrIgXD3nRqI5cu-95">
          <mxGeometry y="60" width="180" height="30" as="geometry" />
        </mxCell>
        <mxCell id="kwv2DIOrIgXD3nRqI5cu-100" value="" style="shape=partialRectangle;connectable=0;fillColor=none;top=0;left=0;bottom=0;right=0;editable=1;overflow=hidden;whiteSpace=wrap;html=1;" vertex="1" parent="kwv2DIOrIgXD3nRqI5cu-99">
          <mxGeometry width="30" height="30" as="geometry">
            <mxRectangle width="30" height="30" as="alternateBounds" />
          </mxGeometry>
        </mxCell>
        <mxCell id="kwv2DIOrIgXD3nRqI5cu-101" value="name" style="shape=partialRectangle;connectable=0;fillColor=none;top=0;left=0;bottom=0;right=0;align=left;spacingLeft=6;overflow=hidden;whiteSpace=wrap;html=1;" vertex="1" parent="kwv2DIOrIgXD3nRqI5cu-99">
          <mxGeometry x="30" width="150" height="30" as="geometry">
            <mxRectangle width="150" height="30" as="alternateBounds" />
          </mxGeometry>
        </mxCell>
        <mxCell id="kwv2DIOrIgXD3nRqI5cu-102" value="" style="shape=tableRow;horizontal=0;startSize=0;swimlaneHead=0;swimlaneBody=0;fillColor=none;collapsible=0;dropTarget=0;points=[[0,0.5],[1,0.5]];portConstraint=eastwest;top=0;left=0;right=0;bottom=0;" vertex="1" parent="kwv2DIOrIgXD3nRqI5cu-95">
          <mxGeometry y="90" width="180" height="30" as="geometry" />
        </mxCell>
        <mxCell id="kwv2DIOrIgXD3nRqI5cu-103" value="" style="shape=partialRectangle;connectable=0;fillColor=none;top=0;left=0;bottom=0;right=0;editable=1;overflow=hidden;whiteSpace=wrap;html=1;" vertex="1" parent="kwv2DIOrIgXD3nRqI5cu-102">
          <mxGeometry width="30" height="30" as="geometry">
            <mxRectangle width="30" height="30" as="alternateBounds" />
          </mxGeometry>
        </mxCell>
        <mxCell id="kwv2DIOrIgXD3nRqI5cu-104" value="surname" style="shape=partialRectangle;connectable=0;fillColor=none;top=0;left=0;bottom=0;right=0;align=left;spacingLeft=6;overflow=hidden;whiteSpace=wrap;html=1;" vertex="1" parent="kwv2DIOrIgXD3nRqI5cu-102">
          <mxGeometry x="30" width="150" height="30" as="geometry">
            <mxRectangle width="150" height="30" as="alternateBounds" />
          </mxGeometry>
        </mxCell>
        <mxCell id="kwv2DIOrIgXD3nRqI5cu-109" value="" style="shape=tableRow;horizontal=0;startSize=0;swimlaneHead=0;swimlaneBody=0;fillColor=none;collapsible=0;dropTarget=0;points=[[0,0.5],[1,0.5]];portConstraint=eastwest;top=0;left=0;right=0;bottom=0;" vertex="1" parent="kwv2DIOrIgXD3nRqI5cu-95">
          <mxGeometry y="120" width="180" height="30" as="geometry" />
        </mxCell>
        <mxCell id="kwv2DIOrIgXD3nRqI5cu-110" value="" style="shape=partialRectangle;connectable=0;fillColor=none;top=0;left=0;bottom=0;right=0;editable=1;overflow=hidden;whiteSpace=wrap;html=1;" vertex="1" parent="kwv2DIOrIgXD3nRqI5cu-109">
          <mxGeometry width="30" height="30" as="geometry">
            <mxRectangle width="30" height="30" as="alternateBounds" />
          </mxGeometry>
        </mxCell>
        <mxCell id="kwv2DIOrIgXD3nRqI5cu-111" value="email" style="shape=partialRectangle;connectable=0;fillColor=none;top=0;left=0;bottom=0;right=0;align=left;spacingLeft=6;overflow=hidden;whiteSpace=wrap;html=1;" vertex="1" parent="kwv2DIOrIgXD3nRqI5cu-109">
          <mxGeometry x="30" width="150" height="30" as="geometry">
            <mxRectangle width="150" height="30" as="alternateBounds" />
          </mxGeometry>
        </mxCell>
        <mxCell id="kwv2DIOrIgXD3nRqI5cu-105" value="" style="shape=tableRow;horizontal=0;startSize=0;swimlaneHead=0;swimlaneBody=0;fillColor=none;collapsible=0;dropTarget=0;points=[[0,0.5],[1,0.5]];portConstraint=eastwest;top=0;left=0;right=0;bottom=0;" vertex="1" parent="kwv2DIOrIgXD3nRqI5cu-95">
          <mxGeometry y="150" width="180" height="30" as="geometry" />
        </mxCell>
        <mxCell id="kwv2DIOrIgXD3nRqI5cu-106" value="" style="shape=partialRectangle;connectable=0;fillColor=none;top=0;left=0;bottom=0;right=0;editable=1;overflow=hidden;whiteSpace=wrap;html=1;" vertex="1" parent="kwv2DIOrIgXD3nRqI5cu-105">
          <mxGeometry width="30" height="30" as="geometry">
            <mxRectangle width="30" height="30" as="alternateBounds" />
          </mxGeometry>
        </mxCell>
        <mxCell id="kwv2DIOrIgXD3nRqI5cu-107" value="role" style="shape=partialRectangle;connectable=0;fillColor=none;top=0;left=0;bottom=0;right=0;align=left;spacingLeft=6;overflow=hidden;whiteSpace=wrap;html=1;" vertex="1" parent="kwv2DIOrIgXD3nRqI5cu-105">
          <mxGeometry x="30" width="150" height="30" as="geometry">
            <mxRectangle width="150" height="30" as="alternateBounds" />
          </mxGeometry>
        </mxCell>
        <mxCell id="kwv2DIOrIgXD3nRqI5cu-112" value="Task" style="shape=table;startSize=30;container=1;collapsible=1;childLayout=tableLayout;fixedRows=1;rowLines=0;fontStyle=1;align=center;resizeLast=1;html=1;" vertex="1" parent="1">
          <mxGeometry x="648" y="261.5" width="180" height="300.4117395737594" as="geometry" />
        </mxCell>
        <mxCell id="kwv2DIOrIgXD3nRqI5cu-113" value="" style="shape=tableRow;horizontal=0;startSize=0;swimlaneHead=0;swimlaneBody=0;fillColor=none;collapsible=0;dropTarget=0;points=[[0,0.5],[1,0.5]];portConstraint=eastwest;top=0;left=0;right=0;bottom=1;" vertex="1" parent="kwv2DIOrIgXD3nRqI5cu-112">
          <mxGeometry y="30" width="180" height="30" as="geometry" />
        </mxCell>
        <mxCell id="kwv2DIOrIgXD3nRqI5cu-114" value="PK" style="shape=partialRectangle;connectable=0;fillColor=none;top=0;left=0;bottom=0;right=0;fontStyle=1;overflow=hidden;whiteSpace=wrap;html=1;" vertex="1" parent="kwv2DIOrIgXD3nRqI5cu-113">
          <mxGeometry width="30" height="30" as="geometry">
            <mxRectangle width="30" height="30" as="alternateBounds" />
          </mxGeometry>
        </mxCell>
        <mxCell id="kwv2DIOrIgXD3nRqI5cu-115" value="id" style="shape=partialRectangle;connectable=0;fillColor=none;top=0;left=0;bottom=0;right=0;align=left;spacingLeft=6;fontStyle=5;overflow=hidden;whiteSpace=wrap;html=1;" vertex="1" parent="kwv2DIOrIgXD3nRqI5cu-113">
          <mxGeometry x="30" width="150" height="30" as="geometry">
            <mxRectangle width="150" height="30" as="alternateBounds" />
          </mxGeometry>
        </mxCell>
        <mxCell id="kwv2DIOrIgXD3nRqI5cu-116" value="" style="shape=tableRow;horizontal=0;startSize=0;swimlaneHead=0;swimlaneBody=0;fillColor=none;collapsible=0;dropTarget=0;points=[[0,0.5],[1,0.5]];portConstraint=eastwest;top=0;left=0;right=0;bottom=0;" vertex="1" parent="kwv2DIOrIgXD3nRqI5cu-112">
          <mxGeometry y="60" width="180" height="30" as="geometry" />
        </mxCell>
        <mxCell id="kwv2DIOrIgXD3nRqI5cu-117" value="" style="shape=partialRectangle;connectable=0;fillColor=none;top=0;left=0;bottom=0;right=0;editable=1;overflow=hidden;whiteSpace=wrap;html=1;" vertex="1" parent="kwv2DIOrIgXD3nRqI5cu-116">
          <mxGeometry width="30" height="30" as="geometry">
            <mxRectangle width="30" height="30" as="alternateBounds" />
          </mxGeometry>
        </mxCell>
        <mxCell id="kwv2DIOrIgXD3nRqI5cu-118" value="title" style="shape=partialRectangle;connectable=0;fillColor=none;top=0;left=0;bottom=0;right=0;align=left;spacingLeft=6;overflow=hidden;whiteSpace=wrap;html=1;" vertex="1" parent="kwv2DIOrIgXD3nRqI5cu-116">
          <mxGeometry x="30" width="150" height="30" as="geometry">
            <mxRectangle width="150" height="30" as="alternateBounds" />
          </mxGeometry>
        </mxCell>
        <mxCell id="kwv2DIOrIgXD3nRqI5cu-119" value="" style="shape=tableRow;horizontal=0;startSize=0;swimlaneHead=0;swimlaneBody=0;fillColor=none;collapsible=0;dropTarget=0;points=[[0,0.5],[1,0.5]];portConstraint=eastwest;top=0;left=0;right=0;bottom=0;" vertex="1" parent="kwv2DIOrIgXD3nRqI5cu-112">
          <mxGeometry y="90" width="180" height="30" as="geometry" />
        </mxCell>
        <mxCell id="kwv2DIOrIgXD3nRqI5cu-120" value="" style="shape=partialRectangle;connectable=0;fillColor=none;top=0;left=0;bottom=0;right=0;editable=1;overflow=hidden;whiteSpace=wrap;html=1;" vertex="1" parent="kwv2DIOrIgXD3nRqI5cu-119">
          <mxGeometry width="30" height="30" as="geometry">
            <mxRectangle width="30" height="30" as="alternateBounds" />
          </mxGeometry>
        </mxCell>
        <mxCell id="kwv2DIOrIgXD3nRqI5cu-121" value="description" style="shape=partialRectangle;connectable=0;fillColor=none;top=0;left=0;bottom=0;right=0;align=left;spacingLeft=6;overflow=hidden;whiteSpace=wrap;html=1;" vertex="1" parent="kwv2DIOrIgXD3nRqI5cu-119">
          <mxGeometry x="30" width="150" height="30" as="geometry">
            <mxRectangle width="150" height="30" as="alternateBounds" />
          </mxGeometry>
        </mxCell>
        <mxCell id="kwv2DIOrIgXD3nRqI5cu-122" value="" style="shape=tableRow;horizontal=0;startSize=0;swimlaneHead=0;swimlaneBody=0;fillColor=none;collapsible=0;dropTarget=0;points=[[0,0.5],[1,0.5]];portConstraint=eastwest;top=0;left=0;right=0;bottom=0;" vertex="1" parent="kwv2DIOrIgXD3nRqI5cu-112">
          <mxGeometry y="120" width="180" height="30" as="geometry" />
        </mxCell>
        <mxCell id="kwv2DIOrIgXD3nRqI5cu-123" value="" style="shape=partialRectangle;connectable=0;fillColor=none;top=0;left=0;bottom=0;right=0;editable=1;overflow=hidden;whiteSpace=wrap;html=1;" vertex="1" parent="kwv2DIOrIgXD3nRqI5cu-122">
          <mxGeometry width="30" height="30" as="geometry">
            <mxRectangle width="30" height="30" as="alternateBounds" />
          </mxGeometry>
        </mxCell>
        <mxCell id="kwv2DIOrIgXD3nRqI5cu-124" value="creation_date" style="shape=partialRectangle;connectable=0;fillColor=none;top=0;left=0;bottom=0;right=0;align=left;spacingLeft=6;overflow=hidden;whiteSpace=wrap;html=1;" vertex="1" parent="kwv2DIOrIgXD3nRqI5cu-122">
          <mxGeometry x="30" width="150" height="30" as="geometry">
            <mxRectangle width="150" height="30" as="alternateBounds" />
          </mxGeometry>
        </mxCell>
        <mxCell id="kwv2DIOrIgXD3nRqI5cu-125" value="" style="shape=tableRow;horizontal=0;startSize=0;swimlaneHead=0;swimlaneBody=0;fillColor=none;collapsible=0;dropTarget=0;points=[[0,0.5],[1,0.5]];portConstraint=eastwest;top=0;left=0;right=0;bottom=0;" vertex="1" parent="kwv2DIOrIgXD3nRqI5cu-112">
          <mxGeometry y="150" width="180" height="30" as="geometry" />
        </mxCell>
        <mxCell id="kwv2DIOrIgXD3nRqI5cu-126" value="" style="shape=partialRectangle;connectable=0;fillColor=none;top=0;left=0;bottom=0;right=0;editable=1;overflow=hidden;whiteSpace=wrap;html=1;" vertex="1" parent="kwv2DIOrIgXD3nRqI5cu-125">
          <mxGeometry width="30" height="30" as="geometry">
            <mxRectangle width="30" height="30" as="alternateBounds" />
          </mxGeometry>
        </mxCell>
        <mxCell id="kwv2DIOrIgXD3nRqI5cu-127" value="deadline" style="shape=partialRectangle;connectable=0;fillColor=none;top=0;left=0;bottom=0;right=0;align=left;spacingLeft=6;overflow=hidden;whiteSpace=wrap;html=1;" vertex="1" parent="kwv2DIOrIgXD3nRqI5cu-125">
          <mxGeometry x="30" width="150" height="30" as="geometry">
            <mxRectangle width="150" height="30" as="alternateBounds" />
          </mxGeometry>
        </mxCell>
        <mxCell id="kwv2DIOrIgXD3nRqI5cu-128" value="" style="shape=tableRow;horizontal=0;startSize=0;swimlaneHead=0;swimlaneBody=0;fillColor=none;collapsible=0;dropTarget=0;points=[[0,0.5],[1,0.5]];portConstraint=eastwest;top=0;left=0;right=0;bottom=0;" vertex="1" parent="kwv2DIOrIgXD3nRqI5cu-112">
          <mxGeometry y="180" width="180" height="30" as="geometry" />
        </mxCell>
        <mxCell id="kwv2DIOrIgXD3nRqI5cu-129" value="" style="shape=partialRectangle;connectable=0;fillColor=none;top=0;left=0;bottom=0;right=0;editable=1;overflow=hidden;whiteSpace=wrap;html=1;" vertex="1" parent="kwv2DIOrIgXD3nRqI5cu-128">
          <mxGeometry width="30" height="30" as="geometry">
            <mxRectangle width="30" height="30" as="alternateBounds" />
          </mxGeometry>
        </mxCell>
        <mxCell id="kwv2DIOrIgXD3nRqI5cu-130" value="status" style="shape=partialRectangle;connectable=0;fillColor=none;top=0;left=0;bottom=0;right=0;align=left;spacingLeft=6;overflow=hidden;whiteSpace=wrap;html=1;" vertex="1" parent="kwv2DIOrIgXD3nRqI5cu-128">
          <mxGeometry x="30" width="150" height="30" as="geometry">
            <mxRectangle width="150" height="30" as="alternateBounds" />
          </mxGeometry>
        </mxCell>
        <mxCell id="kwv2DIOrIgXD3nRqI5cu-134" value="" style="shape=tableRow;horizontal=0;startSize=0;swimlaneHead=0;swimlaneBody=0;fillColor=none;collapsible=0;dropTarget=0;points=[[0,0.5],[1,0.5]];portConstraint=eastwest;top=0;left=0;right=0;bottom=0;" vertex="1" parent="kwv2DIOrIgXD3nRqI5cu-112">
          <mxGeometry y="210" width="180" height="30" as="geometry" />
        </mxCell>
        <mxCell id="kwv2DIOrIgXD3nRqI5cu-135" value="FK" style="shape=partialRectangle;connectable=0;fillColor=none;top=0;left=0;bottom=0;right=0;editable=1;overflow=hidden;whiteSpace=wrap;html=1;" vertex="1" parent="kwv2DIOrIgXD3nRqI5cu-134">
          <mxGeometry width="30" height="30" as="geometry">
            <mxRectangle width="30" height="30" as="alternateBounds" />
          </mxGeometry>
        </mxCell>
        <mxCell id="kwv2DIOrIgXD3nRqI5cu-136" value="project_id" style="shape=partialRectangle;connectable=0;fillColor=none;top=0;left=0;bottom=0;right=0;align=left;spacingLeft=6;overflow=hidden;whiteSpace=wrap;html=1;" vertex="1" parent="kwv2DIOrIgXD3nRqI5cu-134">
          <mxGeometry x="30" width="150" height="30" as="geometry">
            <mxRectangle width="150" height="30" as="alternateBounds" />
          </mxGeometry>
        </mxCell>
        <mxCell id="kwv2DIOrIgXD3nRqI5cu-137" value="" style="shape=tableRow;horizontal=0;startSize=0;swimlaneHead=0;swimlaneBody=0;fillColor=none;collapsible=0;dropTarget=0;points=[[0,0.5],[1,0.5]];portConstraint=eastwest;top=0;left=0;right=0;bottom=0;" vertex="1" parent="kwv2DIOrIgXD3nRqI5cu-112">
          <mxGeometry y="240" width="180" height="30" as="geometry" />
        </mxCell>
        <mxCell id="kwv2DIOrIgXD3nRqI5cu-138" value="FK" style="shape=partialRectangle;connectable=0;fillColor=none;top=0;left=0;bottom=0;right=0;editable=1;overflow=hidden;whiteSpace=wrap;html=1;" vertex="1" parent="kwv2DIOrIgXD3nRqI5cu-137">
          <mxGeometry width="30" height="30" as="geometry">
            <mxRectangle width="30" height="30" as="alternateBounds" />
          </mxGeometry>
        </mxCell>
        <mxCell id="kwv2DIOrIgXD3nRqI5cu-139" value="executor_id" style="shape=partialRectangle;connectable=0;fillColor=none;top=0;left=0;bottom=0;right=0;align=left;spacingLeft=6;overflow=hidden;whiteSpace=wrap;html=1;" vertex="1" parent="kwv2DIOrIgXD3nRqI5cu-137">
          <mxGeometry x="30" width="150" height="30" as="geometry">
            <mxRectangle width="150" height="30" as="alternateBounds" />
          </mxGeometry>
        </mxCell>
        <mxCell id="kwv2DIOrIgXD3nRqI5cu-140" value="" style="shape=tableRow;horizontal=0;startSize=0;swimlaneHead=0;swimlaneBody=0;fillColor=none;collapsible=0;dropTarget=0;points=[[0,0.5],[1,0.5]];portConstraint=eastwest;top=0;left=0;right=0;bottom=0;" vertex="1" parent="kwv2DIOrIgXD3nRqI5cu-112">
          <mxGeometry y="270" width="180" height="30" as="geometry" />
        </mxCell>
        <mxCell id="kwv2DIOrIgXD3nRqI5cu-141" value="FK" style="shape=partialRectangle;connectable=0;fillColor=none;top=0;left=0;bottom=0;right=0;editable=1;overflow=hidden;whiteSpace=wrap;html=1;" vertex="1" parent="kwv2DIOrIgXD3nRqI5cu-140">
          <mxGeometry width="30" height="30" as="geometry">
            <mxRectangle width="30" height="30" as="alternateBounds" />
          </mxGeometry>
        </mxCell>
        <mxCell id="kwv2DIOrIgXD3nRqI5cu-142" value="creator_id" style="shape=partialRectangle;connectable=0;fillColor=none;top=0;left=0;bottom=0;right=0;align=left;spacingLeft=6;overflow=hidden;whiteSpace=wrap;html=1;" vertex="1" parent="kwv2DIOrIgXD3nRqI5cu-140">
          <mxGeometry x="30" width="150" height="30" as="geometry">
            <mxRectangle width="150" height="30" as="alternateBounds" />
          </mxGeometry>
        </mxCell>
        <mxCell id="kwv2DIOrIgXD3nRqI5cu-146" value="Project" style="shape=table;startSize=30;container=1;collapsible=1;childLayout=tableLayout;fixedRows=1;rowLines=0;fontStyle=1;align=center;resizeLast=1;html=1;" vertex="1" parent="1">
          <mxGeometry x="369" y="261.5" width="180" height="210.4117395737594" as="geometry" />
        </mxCell>
        <mxCell id="kwv2DIOrIgXD3nRqI5cu-147" value="" style="shape=tableRow;horizontal=0;startSize=0;swimlaneHead=0;swimlaneBody=0;fillColor=none;collapsible=0;dropTarget=0;points=[[0,0.5],[1,0.5]];portConstraint=eastwest;top=0;left=0;right=0;bottom=1;" vertex="1" parent="kwv2DIOrIgXD3nRqI5cu-146">
          <mxGeometry y="30" width="180" height="30" as="geometry" />
        </mxCell>
        <mxCell id="kwv2DIOrIgXD3nRqI5cu-148" value="PK" style="shape=partialRectangle;connectable=0;fillColor=none;top=0;left=0;bottom=0;right=0;fontStyle=1;overflow=hidden;whiteSpace=wrap;html=1;" vertex="1" parent="kwv2DIOrIgXD3nRqI5cu-147">
          <mxGeometry width="30" height="30" as="geometry">
            <mxRectangle width="30" height="30" as="alternateBounds" />
          </mxGeometry>
        </mxCell>
        <mxCell id="kwv2DIOrIgXD3nRqI5cu-149" value="id" style="shape=partialRectangle;connectable=0;fillColor=none;top=0;left=0;bottom=0;right=0;align=left;spacingLeft=6;fontStyle=5;overflow=hidden;whiteSpace=wrap;html=1;" vertex="1" parent="kwv2DIOrIgXD3nRqI5cu-147">
          <mxGeometry x="30" width="150" height="30" as="geometry">
            <mxRectangle width="150" height="30" as="alternateBounds" />
          </mxGeometry>
        </mxCell>
        <mxCell id="kwv2DIOrIgXD3nRqI5cu-150" value="" style="shape=tableRow;horizontal=0;startSize=0;swimlaneHead=0;swimlaneBody=0;fillColor=none;collapsible=0;dropTarget=0;points=[[0,0.5],[1,0.5]];portConstraint=eastwest;top=0;left=0;right=0;bottom=0;" vertex="1" parent="kwv2DIOrIgXD3nRqI5cu-146">
          <mxGeometry y="60" width="180" height="30" as="geometry" />
        </mxCell>
        <mxCell id="kwv2DIOrIgXD3nRqI5cu-151" value="" style="shape=partialRectangle;connectable=0;fillColor=none;top=0;left=0;bottom=0;right=0;editable=1;overflow=hidden;whiteSpace=wrap;html=1;" vertex="1" parent="kwv2DIOrIgXD3nRqI5cu-150">
          <mxGeometry width="30" height="30" as="geometry">
            <mxRectangle width="30" height="30" as="alternateBounds" />
          </mxGeometry>
        </mxCell>
        <mxCell id="kwv2DIOrIgXD3nRqI5cu-152" value="title" style="shape=partialRectangle;connectable=0;fillColor=none;top=0;left=0;bottom=0;right=0;align=left;spacingLeft=6;overflow=hidden;whiteSpace=wrap;html=1;" vertex="1" parent="kwv2DIOrIgXD3nRqI5cu-150">
          <mxGeometry x="30" width="150" height="30" as="geometry">
            <mxRectangle width="150" height="30" as="alternateBounds" />
          </mxGeometry>
        </mxCell>
        <mxCell id="kwv2DIOrIgXD3nRqI5cu-153" value="" style="shape=tableRow;horizontal=0;startSize=0;swimlaneHead=0;swimlaneBody=0;fillColor=none;collapsible=0;dropTarget=0;points=[[0,0.5],[1,0.5]];portConstraint=eastwest;top=0;left=0;right=0;bottom=0;" vertex="1" parent="kwv2DIOrIgXD3nRqI5cu-146">
          <mxGeometry y="90" width="180" height="30" as="geometry" />
        </mxCell>
        <mxCell id="kwv2DIOrIgXD3nRqI5cu-154" value="" style="shape=partialRectangle;connectable=0;fillColor=none;top=0;left=0;bottom=0;right=0;editable=1;overflow=hidden;whiteSpace=wrap;html=1;" vertex="1" parent="kwv2DIOrIgXD3nRqI5cu-153">
          <mxGeometry width="30" height="30" as="geometry">
            <mxRectangle width="30" height="30" as="alternateBounds" />
          </mxGeometry>
        </mxCell>
        <mxCell id="kwv2DIOrIgXD3nRqI5cu-155" value="description" style="shape=partialRectangle;connectable=0;fillColor=none;top=0;left=0;bottom=0;right=0;align=left;spacingLeft=6;overflow=hidden;whiteSpace=wrap;html=1;" vertex="1" parent="kwv2DIOrIgXD3nRqI5cu-153">
          <mxGeometry x="30" width="150" height="30" as="geometry">
            <mxRectangle width="150" height="30" as="alternateBounds" />
          </mxGeometry>
        </mxCell>
        <mxCell id="kwv2DIOrIgXD3nRqI5cu-156" value="" style="shape=tableRow;horizontal=0;startSize=0;swimlaneHead=0;swimlaneBody=0;fillColor=none;collapsible=0;dropTarget=0;points=[[0,0.5],[1,0.5]];portConstraint=eastwest;top=0;left=0;right=0;bottom=0;" vertex="1" parent="kwv2DIOrIgXD3nRqI5cu-146">
          <mxGeometry y="120" width="180" height="30" as="geometry" />
        </mxCell>
        <mxCell id="kwv2DIOrIgXD3nRqI5cu-157" value="" style="shape=partialRectangle;connectable=0;fillColor=none;top=0;left=0;bottom=0;right=0;editable=1;overflow=hidden;whiteSpace=wrap;html=1;" vertex="1" parent="kwv2DIOrIgXD3nRqI5cu-156">
          <mxGeometry width="30" height="30" as="geometry">
            <mxRectangle width="30" height="30" as="alternateBounds" />
          </mxGeometry>
        </mxCell>
        <mxCell id="kwv2DIOrIgXD3nRqI5cu-158" value="start_date" style="shape=partialRectangle;connectable=0;fillColor=none;top=0;left=0;bottom=0;right=0;align=left;spacingLeft=6;overflow=hidden;whiteSpace=wrap;html=1;" vertex="1" parent="kwv2DIOrIgXD3nRqI5cu-156">
          <mxGeometry x="30" width="150" height="30" as="geometry">
            <mxRectangle width="150" height="30" as="alternateBounds" />
          </mxGeometry>
        </mxCell>
        <mxCell id="kwv2DIOrIgXD3nRqI5cu-159" value="" style="shape=tableRow;horizontal=0;startSize=0;swimlaneHead=0;swimlaneBody=0;fillColor=none;collapsible=0;dropTarget=0;points=[[0,0.5],[1,0.5]];portConstraint=eastwest;top=0;left=0;right=0;bottom=0;" vertex="1" parent="kwv2DIOrIgXD3nRqI5cu-146">
          <mxGeometry y="150" width="180" height="30" as="geometry" />
        </mxCell>
        <mxCell id="kwv2DIOrIgXD3nRqI5cu-160" value="" style="shape=partialRectangle;connectable=0;fillColor=none;top=0;left=0;bottom=0;right=0;editable=1;overflow=hidden;whiteSpace=wrap;html=1;" vertex="1" parent="kwv2DIOrIgXD3nRqI5cu-159">
          <mxGeometry width="30" height="30" as="geometry">
            <mxRectangle width="30" height="30" as="alternateBounds" />
          </mxGeometry>
        </mxCell>
        <mxCell id="kwv2DIOrIgXD3nRqI5cu-161" value="deadline" style="shape=partialRectangle;connectable=0;fillColor=none;top=0;left=0;bottom=0;right=0;align=left;spacingLeft=6;overflow=hidden;whiteSpace=wrap;html=1;" vertex="1" parent="kwv2DIOrIgXD3nRqI5cu-159">
          <mxGeometry x="30" width="150" height="30" as="geometry">
            <mxRectangle width="150" height="30" as="alternateBounds" />
          </mxGeometry>
        </mxCell>
        <mxCell id="kwv2DIOrIgXD3nRqI5cu-162" value="" style="shape=tableRow;horizontal=0;startSize=0;swimlaneHead=0;swimlaneBody=0;fillColor=none;collapsible=0;dropTarget=0;points=[[0,0.5],[1,0.5]];portConstraint=eastwest;top=0;left=0;right=0;bottom=0;" vertex="1" parent="kwv2DIOrIgXD3nRqI5cu-146">
          <mxGeometry y="180" width="180" height="30" as="geometry" />
        </mxCell>
        <mxCell id="kwv2DIOrIgXD3nRqI5cu-163" value="FK" style="shape=partialRectangle;connectable=0;fillColor=none;top=0;left=0;bottom=0;right=0;editable=1;overflow=hidden;whiteSpace=wrap;html=1;" vertex="1" parent="kwv2DIOrIgXD3nRqI5cu-162">
          <mxGeometry width="30" height="30" as="geometry">
            <mxRectangle width="30" height="30" as="alternateBounds" />
          </mxGeometry>
        </mxCell>
        <mxCell id="kwv2DIOrIgXD3nRqI5cu-164" value="manager_id" style="shape=partialRectangle;connectable=0;fillColor=none;top=0;left=0;bottom=0;right=0;align=left;spacingLeft=6;overflow=hidden;whiteSpace=wrap;html=1;" vertex="1" parent="kwv2DIOrIgXD3nRqI5cu-162">
          <mxGeometry x="30" width="150" height="30" as="geometry">
            <mxRectangle width="150" height="30" as="alternateBounds" />
          </mxGeometry>
        </mxCell>
        <mxCell id="kwv2DIOrIgXD3nRqI5cu-175" value="Report" style="shape=table;startSize=30;container=1;collapsible=1;childLayout=tableLayout;fixedRows=1;rowLines=0;fontStyle=1;align=center;resizeLast=1;html=1;" vertex="1" parent="1">
          <mxGeometry x="915" y="162" width="180" height="210.4117395737594" as="geometry" />
        </mxCell>
        <mxCell id="kwv2DIOrIgXD3nRqI5cu-176" value="" style="shape=tableRow;horizontal=0;startSize=0;swimlaneHead=0;swimlaneBody=0;fillColor=none;collapsible=0;dropTarget=0;points=[[0,0.5],[1,0.5]];portConstraint=eastwest;top=0;left=0;right=0;bottom=1;" vertex="1" parent="kwv2DIOrIgXD3nRqI5cu-175">
          <mxGeometry y="30" width="180" height="30" as="geometry" />
        </mxCell>
        <mxCell id="kwv2DIOrIgXD3nRqI5cu-177" value="PK" style="shape=partialRectangle;connectable=0;fillColor=none;top=0;left=0;bottom=0;right=0;fontStyle=1;overflow=hidden;whiteSpace=wrap;html=1;" vertex="1" parent="kwv2DIOrIgXD3nRqI5cu-176">
          <mxGeometry width="30" height="30" as="geometry">
            <mxRectangle width="30" height="30" as="alternateBounds" />
          </mxGeometry>
        </mxCell>
        <mxCell id="kwv2DIOrIgXD3nRqI5cu-178" value="id" style="shape=partialRectangle;connectable=0;fillColor=none;top=0;left=0;bottom=0;right=0;align=left;spacingLeft=6;fontStyle=5;overflow=hidden;whiteSpace=wrap;html=1;" vertex="1" parent="kwv2DIOrIgXD3nRqI5cu-176">
          <mxGeometry x="30" width="150" height="30" as="geometry">
            <mxRectangle width="150" height="30" as="alternateBounds" />
          </mxGeometry>
        </mxCell>
        <mxCell id="kwv2DIOrIgXD3nRqI5cu-179" value="" style="shape=tableRow;horizontal=0;startSize=0;swimlaneHead=0;swimlaneBody=0;fillColor=none;collapsible=0;dropTarget=0;points=[[0,0.5],[1,0.5]];portConstraint=eastwest;top=0;left=0;right=0;bottom=0;" vertex="1" parent="kwv2DIOrIgXD3nRqI5cu-175">
          <mxGeometry y="60" width="180" height="30" as="geometry" />
        </mxCell>
        <mxCell id="kwv2DIOrIgXD3nRqI5cu-180" value="FK" style="shape=partialRectangle;connectable=0;fillColor=none;top=0;left=0;bottom=0;right=0;editable=1;overflow=hidden;whiteSpace=wrap;html=1;" vertex="1" parent="kwv2DIOrIgXD3nRqI5cu-179">
          <mxGeometry width="30" height="30" as="geometry">
            <mxRectangle width="30" height="30" as="alternateBounds" />
          </mxGeometry>
        </mxCell>
        <mxCell id="kwv2DIOrIgXD3nRqI5cu-181" value="task_id" style="shape=partialRectangle;connectable=0;fillColor=none;top=0;left=0;bottom=0;right=0;align=left;spacingLeft=6;overflow=hidden;whiteSpace=wrap;html=1;" vertex="1" parent="kwv2DIOrIgXD3nRqI5cu-179">
          <mxGeometry x="30" width="150" height="30" as="geometry">
            <mxRectangle width="150" height="30" as="alternateBounds" />
          </mxGeometry>
        </mxCell>
        <mxCell id="kwv2DIOrIgXD3nRqI5cu-182" value="" style="shape=tableRow;horizontal=0;startSize=0;swimlaneHead=0;swimlaneBody=0;fillColor=none;collapsible=0;dropTarget=0;points=[[0,0.5],[1,0.5]];portConstraint=eastwest;top=0;left=0;right=0;bottom=0;" vertex="1" parent="kwv2DIOrIgXD3nRqI5cu-175">
          <mxGeometry y="90" width="180" height="30" as="geometry" />
        </mxCell>
        <mxCell id="kwv2DIOrIgXD3nRqI5cu-183" value="" style="shape=partialRectangle;connectable=0;fillColor=none;top=0;left=0;bottom=0;right=0;editable=1;overflow=hidden;whiteSpace=wrap;html=1;" vertex="1" parent="kwv2DIOrIgXD3nRqI5cu-182">
          <mxGeometry width="30" height="30" as="geometry">
            <mxRectangle width="30" height="30" as="alternateBounds" />
          </mxGeometry>
        </mxCell>
        <mxCell id="kwv2DIOrIgXD3nRqI5cu-184" value="date" style="shape=partialRectangle;connectable=0;fillColor=none;top=0;left=0;bottom=0;right=0;align=left;spacingLeft=6;overflow=hidden;whiteSpace=wrap;html=1;" vertex="1" parent="kwv2DIOrIgXD3nRqI5cu-182">
          <mxGeometry x="30" width="150" height="30" as="geometry">
            <mxRectangle width="150" height="30" as="alternateBounds" />
          </mxGeometry>
        </mxCell>
        <mxCell id="kwv2DIOrIgXD3nRqI5cu-185" value="" style="shape=tableRow;horizontal=0;startSize=0;swimlaneHead=0;swimlaneBody=0;fillColor=none;collapsible=0;dropTarget=0;points=[[0,0.5],[1,0.5]];portConstraint=eastwest;top=0;left=0;right=0;bottom=0;" vertex="1" parent="kwv2DIOrIgXD3nRqI5cu-175">
          <mxGeometry y="120" width="180" height="30" as="geometry" />
        </mxCell>
        <mxCell id="kwv2DIOrIgXD3nRqI5cu-186" value="" style="shape=partialRectangle;connectable=0;fillColor=none;top=0;left=0;bottom=0;right=0;editable=1;overflow=hidden;whiteSpace=wrap;html=1;" vertex="1" parent="kwv2DIOrIgXD3nRqI5cu-185">
          <mxGeometry width="30" height="30" as="geometry">
            <mxRectangle width="30" height="30" as="alternateBounds" />
          </mxGeometry>
        </mxCell>
        <mxCell id="kwv2DIOrIgXD3nRqI5cu-187" value="description" style="shape=partialRectangle;connectable=0;fillColor=none;top=0;left=0;bottom=0;right=0;align=left;spacingLeft=6;overflow=hidden;whiteSpace=wrap;html=1;" vertex="1" parent="kwv2DIOrIgXD3nRqI5cu-185">
          <mxGeometry x="30" width="150" height="30" as="geometry">
            <mxRectangle width="150" height="30" as="alternateBounds" />
          </mxGeometry>
        </mxCell>
        <mxCell id="kwv2DIOrIgXD3nRqI5cu-188" value="" style="shape=tableRow;horizontal=0;startSize=0;swimlaneHead=0;swimlaneBody=0;fillColor=none;collapsible=0;dropTarget=0;points=[[0,0.5],[1,0.5]];portConstraint=eastwest;top=0;left=0;right=0;bottom=0;" vertex="1" parent="kwv2DIOrIgXD3nRqI5cu-175">
          <mxGeometry y="150" width="180" height="30" as="geometry" />
        </mxCell>
        <mxCell id="kwv2DIOrIgXD3nRqI5cu-189" value="" style="shape=partialRectangle;connectable=0;fillColor=none;top=0;left=0;bottom=0;right=0;editable=1;overflow=hidden;whiteSpace=wrap;html=1;" vertex="1" parent="kwv2DIOrIgXD3nRqI5cu-188">
          <mxGeometry width="30" height="30" as="geometry">
            <mxRectangle width="30" height="30" as="alternateBounds" />
          </mxGeometry>
        </mxCell>
        <mxCell id="kwv2DIOrIgXD3nRqI5cu-190" value="status" style="shape=partialRectangle;connectable=0;fillColor=none;top=0;left=0;bottom=0;right=0;align=left;spacingLeft=6;overflow=hidden;whiteSpace=wrap;html=1;" vertex="1" parent="kwv2DIOrIgXD3nRqI5cu-188">
          <mxGeometry x="30" width="150" height="30" as="geometry">
            <mxRectangle width="150" height="30" as="alternateBounds" />
          </mxGeometry>
        </mxCell>
        <mxCell id="kwv2DIOrIgXD3nRqI5cu-221" value="" style="shape=tableRow;horizontal=0;startSize=0;swimlaneHead=0;swimlaneBody=0;fillColor=none;collapsible=0;dropTarget=0;points=[[0,0.5],[1,0.5]];portConstraint=eastwest;top=0;left=0;right=0;bottom=0;" vertex="1" parent="kwv2DIOrIgXD3nRqI5cu-175">
          <mxGeometry y="180" width="180" height="30" as="geometry" />
        </mxCell>
        <mxCell id="kwv2DIOrIgXD3nRqI5cu-222" value="" style="shape=partialRectangle;connectable=0;fillColor=none;top=0;left=0;bottom=0;right=0;editable=1;overflow=hidden;whiteSpace=wrap;html=1;" vertex="1" parent="kwv2DIOrIgXD3nRqI5cu-221">
          <mxGeometry width="30" height="30" as="geometry">
            <mxRectangle width="30" height="30" as="alternateBounds" />
          </mxGeometry>
        </mxCell>
        <mxCell id="kwv2DIOrIgXD3nRqI5cu-223" value="file_url" style="shape=partialRectangle;connectable=0;fillColor=none;top=0;left=0;bottom=0;right=0;align=left;spacingLeft=6;overflow=hidden;whiteSpace=wrap;html=1;" vertex="1" parent="kwv2DIOrIgXD3nRqI5cu-221">
          <mxGeometry x="30" width="150" height="30" as="geometry">
            <mxRectangle width="150" height="30" as="alternateBounds" />
          </mxGeometry>
        </mxCell>
        <mxCell id="kwv2DIOrIgXD3nRqI5cu-195" value="Comment" style="shape=table;startSize=30;container=1;collapsible=1;childLayout=tableLayout;fixedRows=1;rowLines=0;fontStyle=1;align=center;resizeLast=1;html=1;" vertex="1" parent="1">
          <mxGeometry x="692" y="-65.21" width="180" height="180.4117395737594" as="geometry" />
        </mxCell>
        <mxCell id="kwv2DIOrIgXD3nRqI5cu-196" value="" style="shape=tableRow;horizontal=0;startSize=0;swimlaneHead=0;swimlaneBody=0;fillColor=none;collapsible=0;dropTarget=0;points=[[0,0.5],[1,0.5]];portConstraint=eastwest;top=0;left=0;right=0;bottom=1;" vertex="1" parent="kwv2DIOrIgXD3nRqI5cu-195">
          <mxGeometry y="30" width="180" height="30" as="geometry" />
        </mxCell>
        <mxCell id="kwv2DIOrIgXD3nRqI5cu-197" value="PK" style="shape=partialRectangle;connectable=0;fillColor=none;top=0;left=0;bottom=0;right=0;fontStyle=1;overflow=hidden;whiteSpace=wrap;html=1;" vertex="1" parent="kwv2DIOrIgXD3nRqI5cu-196">
          <mxGeometry width="30" height="30" as="geometry">
            <mxRectangle width="30" height="30" as="alternateBounds" />
          </mxGeometry>
        </mxCell>
        <mxCell id="kwv2DIOrIgXD3nRqI5cu-198" value="id" style="shape=partialRectangle;connectable=0;fillColor=none;top=0;left=0;bottom=0;right=0;align=left;spacingLeft=6;fontStyle=5;overflow=hidden;whiteSpace=wrap;html=1;" vertex="1" parent="kwv2DIOrIgXD3nRqI5cu-196">
          <mxGeometry x="30" width="150" height="30" as="geometry">
            <mxRectangle width="150" height="30" as="alternateBounds" />
          </mxGeometry>
        </mxCell>
        <mxCell id="kwv2DIOrIgXD3nRqI5cu-199" value="" style="shape=tableRow;horizontal=0;startSize=0;swimlaneHead=0;swimlaneBody=0;fillColor=none;collapsible=0;dropTarget=0;points=[[0,0.5],[1,0.5]];portConstraint=eastwest;top=0;left=0;right=0;bottom=0;" vertex="1" parent="kwv2DIOrIgXD3nRqI5cu-195">
          <mxGeometry y="60" width="180" height="30" as="geometry" />
        </mxCell>
        <mxCell id="kwv2DIOrIgXD3nRqI5cu-200" value="FK" style="shape=partialRectangle;connectable=0;fillColor=none;top=0;left=0;bottom=0;right=0;editable=1;overflow=hidden;whiteSpace=wrap;html=1;" vertex="1" parent="kwv2DIOrIgXD3nRqI5cu-199">
          <mxGeometry width="30" height="30" as="geometry">
            <mxRectangle width="30" height="30" as="alternateBounds" />
          </mxGeometry>
        </mxCell>
        <mxCell id="kwv2DIOrIgXD3nRqI5cu-201" value="task_id" style="shape=partialRectangle;connectable=0;fillColor=none;top=0;left=0;bottom=0;right=0;align=left;spacingLeft=6;overflow=hidden;whiteSpace=wrap;html=1;" vertex="1" parent="kwv2DIOrIgXD3nRqI5cu-199">
          <mxGeometry x="30" width="150" height="30" as="geometry">
            <mxRectangle width="150" height="30" as="alternateBounds" />
          </mxGeometry>
        </mxCell>
        <mxCell id="kwv2DIOrIgXD3nRqI5cu-202" value="" style="shape=tableRow;horizontal=0;startSize=0;swimlaneHead=0;swimlaneBody=0;fillColor=none;collapsible=0;dropTarget=0;points=[[0,0.5],[1,0.5]];portConstraint=eastwest;top=0;left=0;right=0;bottom=0;" vertex="1" parent="kwv2DIOrIgXD3nRqI5cu-195">
          <mxGeometry y="90" width="180" height="30" as="geometry" />
        </mxCell>
        <mxCell id="kwv2DIOrIgXD3nRqI5cu-203" value="FK" style="shape=partialRectangle;connectable=0;fillColor=none;top=0;left=0;bottom=0;right=0;editable=1;overflow=hidden;whiteSpace=wrap;html=1;" vertex="1" parent="kwv2DIOrIgXD3nRqI5cu-202">
          <mxGeometry width="30" height="30" as="geometry">
            <mxRectangle width="30" height="30" as="alternateBounds" />
          </mxGeometry>
        </mxCell>
        <mxCell id="kwv2DIOrIgXD3nRqI5cu-204" value="user_id" style="shape=partialRectangle;connectable=0;fillColor=none;top=0;left=0;bottom=0;right=0;align=left;spacingLeft=6;overflow=hidden;whiteSpace=wrap;html=1;" vertex="1" parent="kwv2DIOrIgXD3nRqI5cu-202">
          <mxGeometry x="30" width="150" height="30" as="geometry">
            <mxRectangle width="150" height="30" as="alternateBounds" />
          </mxGeometry>
        </mxCell>
        <mxCell id="kwv2DIOrIgXD3nRqI5cu-205" value="" style="shape=tableRow;horizontal=0;startSize=0;swimlaneHead=0;swimlaneBody=0;fillColor=none;collapsible=0;dropTarget=0;points=[[0,0.5],[1,0.5]];portConstraint=eastwest;top=0;left=0;right=0;bottom=0;" vertex="1" parent="kwv2DIOrIgXD3nRqI5cu-195">
          <mxGeometry y="120" width="180" height="30" as="geometry" />
        </mxCell>
        <mxCell id="kwv2DIOrIgXD3nRqI5cu-206" value="" style="shape=partialRectangle;connectable=0;fillColor=none;top=0;left=0;bottom=0;right=0;editable=1;overflow=hidden;whiteSpace=wrap;html=1;" vertex="1" parent="kwv2DIOrIgXD3nRqI5cu-205">
          <mxGeometry width="30" height="30" as="geometry">
            <mxRectangle width="30" height="30" as="alternateBounds" />
          </mxGeometry>
        </mxCell>
        <mxCell id="kwv2DIOrIgXD3nRqI5cu-207" value="date" style="shape=partialRectangle;connectable=0;fillColor=none;top=0;left=0;bottom=0;right=0;align=left;spacingLeft=6;overflow=hidden;whiteSpace=wrap;html=1;" vertex="1" parent="kwv2DIOrIgXD3nRqI5cu-205">
          <mxGeometry x="30" width="150" height="30" as="geometry">
            <mxRectangle width="150" height="30" as="alternateBounds" />
          </mxGeometry>
        </mxCell>
        <mxCell id="kwv2DIOrIgXD3nRqI5cu-208" value="" style="shape=tableRow;horizontal=0;startSize=0;swimlaneHead=0;swimlaneBody=0;fillColor=none;collapsible=0;dropTarget=0;points=[[0,0.5],[1,0.5]];portConstraint=eastwest;top=0;left=0;right=0;bottom=0;" vertex="1" parent="kwv2DIOrIgXD3nRqI5cu-195">
          <mxGeometry y="150" width="180" height="30" as="geometry" />
        </mxCell>
        <mxCell id="kwv2DIOrIgXD3nRqI5cu-209" value="" style="shape=partialRectangle;connectable=0;fillColor=none;top=0;left=0;bottom=0;right=0;editable=1;overflow=hidden;whiteSpace=wrap;html=1;" vertex="1" parent="kwv2DIOrIgXD3nRqI5cu-208">
          <mxGeometry width="30" height="30" as="geometry">
            <mxRectangle width="30" height="30" as="alternateBounds" />
          </mxGeometry>
        </mxCell>
        <mxCell id="kwv2DIOrIgXD3nRqI5cu-210" value="text" style="shape=partialRectangle;connectable=0;fillColor=none;top=0;left=0;bottom=0;right=0;align=left;spacingLeft=6;overflow=hidden;whiteSpace=wrap;html=1;" vertex="1" parent="kwv2DIOrIgXD3nRqI5cu-208">
          <mxGeometry x="30" width="150" height="30" as="geometry">
            <mxRectangle width="150" height="30" as="alternateBounds" />
          </mxGeometry>
        </mxCell>
        <mxCell id="kwv2DIOrIgXD3nRqI5cu-212" value="" style="endArrow=none;html=1;rounded=0;edgeStyle=orthogonalEdgeStyle;startArrow=ERoneToMany;startFill=0;entryX=0;entryY=0.5;entryDx=0;entryDy=0;" edge="1" parent="1" source="kwv2DIOrIgXD3nRqI5cu-162" target="kwv2DIOrIgXD3nRqI5cu-96">
          <mxGeometry width="50" height="50" relative="1" as="geometry">
            <mxPoint x="1029" y="317" as="sourcePoint" />
            <mxPoint x="774" y="219" as="targetPoint" />
            <Array as="points">
              <mxPoint x="347" y="457" />
              <mxPoint x="347" y="45" />
            </Array>
          </mxGeometry>
        </mxCell>
        <mxCell id="kwv2DIOrIgXD3nRqI5cu-214" style="edgeStyle=orthogonalEdgeStyle;rounded=0;orthogonalLoop=1;jettySize=auto;html=1;exitX=1;exitY=0.5;exitDx=0;exitDy=0;entryX=0;entryY=0.5;entryDx=0;entryDy=0;endArrow=ERoneToMany;endFill=0;" edge="1" parent="1" source="kwv2DIOrIgXD3nRqI5cu-96" target="kwv2DIOrIgXD3nRqI5cu-137">
          <mxGeometry relative="1" as="geometry" />
        </mxCell>
        <mxCell id="kwv2DIOrIgXD3nRqI5cu-215" style="edgeStyle=orthogonalEdgeStyle;rounded=0;orthogonalLoop=1;jettySize=auto;html=1;exitX=1;exitY=0.5;exitDx=0;exitDy=0;entryX=0;entryY=0.5;entryDx=0;entryDy=0;endArrow=ERoneToMany;endFill=0;" edge="1" parent="1" source="kwv2DIOrIgXD3nRqI5cu-96" target="kwv2DIOrIgXD3nRqI5cu-140">
          <mxGeometry relative="1" as="geometry">
            <mxPoint x="555" y="55" as="sourcePoint" />
            <mxPoint x="658" y="527" as="targetPoint" />
          </mxGeometry>
        </mxCell>
        <mxCell id="kwv2DIOrIgXD3nRqI5cu-217" style="edgeStyle=orthogonalEdgeStyle;rounded=0;orthogonalLoop=1;jettySize=auto;html=1;exitX=0;exitY=0.5;exitDx=0;exitDy=0;entryX=1;entryY=0.5;entryDx=0;entryDy=0;endArrow=none;startFill=0;startArrow=ERoneToMany;" edge="1" parent="1" source="kwv2DIOrIgXD3nRqI5cu-199" target="kwv2DIOrIgXD3nRqI5cu-96">
          <mxGeometry relative="1" as="geometry">
            <Array as="points">
              <mxPoint x="596" y="10" />
              <mxPoint x="596" y="45" />
            </Array>
          </mxGeometry>
        </mxCell>
        <mxCell id="kwv2DIOrIgXD3nRqI5cu-218" style="edgeStyle=orthogonalEdgeStyle;rounded=0;orthogonalLoop=1;jettySize=auto;html=1;exitX=0;exitY=0.5;exitDx=0;exitDy=0;entryX=0;entryY=0.5;entryDx=0;entryDy=0;endArrow=none;startFill=0;startArrow=ERoneToMany;" edge="1" parent="1" source="kwv2DIOrIgXD3nRqI5cu-202" target="kwv2DIOrIgXD3nRqI5cu-113">
          <mxGeometry relative="1" as="geometry" />
        </mxCell>
        <mxCell id="kwv2DIOrIgXD3nRqI5cu-219" style="edgeStyle=orthogonalEdgeStyle;rounded=0;orthogonalLoop=1;jettySize=auto;html=1;exitX=0;exitY=0.5;exitDx=0;exitDy=0;entryX=1;entryY=0.5;entryDx=0;entryDy=0;endArrow=none;startFill=0;startArrow=ERoneToMany;" edge="1" parent="1" source="kwv2DIOrIgXD3nRqI5cu-179" target="kwv2DIOrIgXD3nRqI5cu-113">
          <mxGeometry relative="1" as="geometry" />
        </mxCell>
        <mxCell id="kwv2DIOrIgXD3nRqI5cu-220" style="edgeStyle=orthogonalEdgeStyle;rounded=0;orthogonalLoop=1;jettySize=auto;html=1;exitX=0;exitY=0.5;exitDx=0;exitDy=0;entryX=1;entryY=0.5;entryDx=0;entryDy=0;startArrow=ERoneToMany;startFill=0;endArrow=none;" edge="1" parent="1" source="kwv2DIOrIgXD3nRqI5cu-134" target="kwv2DIOrIgXD3nRqI5cu-147">
          <mxGeometry relative="1" as="geometry">
            <Array as="points">
              <mxPoint x="579" y="487" />
              <mxPoint x="579" y="307" />
              <mxPoint x="549" y="307" />
            </Array>
          </mxGeometry>
        </mxCell>
      </root>
    </mxGraphModel>
  </diagram>
</mxfile>
